<svg width="88" height="69" viewBox="0 0 88 69" fill="none" xmlns="http://www.w3.org/2000/svg">
<g filter="url(#filter0_d)">
<circle cx="27.5" cy="23.5" r="23.5" fill="white"/>
</g>
<g filter="url(#filter1_d)">
<circle cx="67.5" cy="44.5" r="16.5" fill="white"/>
</g>
<path d="M28.4423 46.1202C27.7703 46.1202 27.1243 46.288 26.5511 46.6029C23.5321 42.7328 21.875 37.9252 21.875 33C21.875 20.8 31.8 10.875 44 10.875C45.4832 10.875 46.9656 11.0226 48.4063 11.3137C48.9131 11.4163 49.4082 11.0881 49.5107 10.5806C49.6133 10.073 49.2852 9.57861 48.7776 9.47571C47.215 9.16003 45.6077 9 44 9C37.5895 9 31.5624 11.4965 27.0294 16.0294C22.4965 20.5624 20 26.5895 20 33C20 38.3925 21.8311 43.6549 25.1647 47.8737C24.7355 48.5149 24.5048 49.2686 24.5048 50.0577C24.5048 51.1095 24.9146 52.0983 25.6583 52.8417C26.4017 53.5854 27.3905 53.9952 28.4423 53.9952C29.494 53.9952 30.4828 53.5854 31.2266 52.8417C31.9703 52.0983 32.3798 51.1091 32.3798 50.0574C32.3798 49.006 31.9703 48.0168 31.2266 47.2734C30.4828 46.5297 29.494 46.1202 28.4423 46.1202ZM29.9005 51.516C29.5112 51.9056 28.993 52.1202 28.4423 52.1202C27.8915 52.1202 27.3737 51.9056 26.984 51.516C26.5944 51.1263 26.3798 50.6085 26.3798 50.0577C26.3798 49.5066 26.5944 48.9888 26.984 48.5991C27.3733 48.2095 27.8915 47.9952 28.4423 47.9952C28.993 47.9952 29.5109 48.2098 29.9005 48.5991C30.2902 48.9888 30.5048 49.5066 30.5048 50.0577C30.5048 50.6085 30.2902 51.1263 29.9005 51.516Z" fill="black"/>
<path d="M62.8346 18.1252C63.8538 16.5963 63.6901 14.506 62.3421 13.158C61.5983 12.4146 60.6095 12.0048 59.5578 12.0048C58.506 12.0048 57.5173 12.4146 56.7735 13.158C56.0297 13.9017 55.6203 14.8905 55.6203 15.9423C55.6203 16.994 56.0297 17.9828 56.7735 18.7266C57.5173 19.4703 58.506 19.8798 59.5578 19.8798C60.2298 19.8798 60.8758 19.712 61.4489 19.3971C64.4679 23.2676 66.125 28.0748 66.125 33C66.125 45.2 56.2 55.125 44 55.125C42.5315 55.125 41.063 54.9803 39.6359 54.6947C39.1283 54.5933 38.6343 54.9225 38.5325 55.4301C38.4311 55.938 38.7603 56.4316 39.2679 56.5334C40.8158 56.8429 42.4081 57 44 57C50.4106 57 56.4377 54.5035 60.9706 49.9706C65.5036 45.4376 68 39.4105 68 33C68 27.6072 66.1686 22.3444 62.8346 18.1252ZM58.0995 17.4009C57.7099 17.0112 57.4953 16.4934 57.4953 15.9423C57.4953 15.3915 57.7099 14.8737 58.0995 14.484C58.4888 14.0944 59.007 13.8798 59.5578 13.8798C60.1086 13.8798 60.6268 14.0944 61.0164 14.484C61.8202 15.2882 61.8202 16.5967 61.0164 17.4009C60.6268 17.7902 60.1086 18.0048 59.5578 18.0048C59.0066 18.0048 58.4888 17.7902 58.0995 17.4009Z" fill="black"/>
<path d="M40.1313 49.125C40.1313 49.6428 40.5514 50.0625 41.0688 50.0625H46.9308C47.4486 50.0625 47.8683 49.6428 47.8683 49.125V47.3075C49.101 46.9757 50.2794 46.4872 51.3868 45.8492L52.67 47.1324C52.8458 47.3082 53.0842 47.4071 53.3333 47.4071C53.5815 47.4071 53.8203 47.3082 53.9961 47.1321L58.1394 42.9858C58.5052 42.6196 58.5052 42.026 58.1394 41.6602L56.8577 40.3784C57.4956 39.271 57.9841 38.0925 58.3159 36.8599H60.1265C60.6443 36.8599 61.064 36.4402 61.064 35.9224V30.0604C61.064 29.5426 60.6443 29.1229 60.1265 29.1229H58.3156C57.9838 27.8906 57.4956 26.7122 56.8577 25.6047L58.1324 24.33C58.3082 24.1542 58.4071 23.9154 58.4071 23.6667C58.4067 23.4181 58.3079 23.1793 58.1321 23.0035L53.9855 18.8602C53.6196 18.4944 53.026 18.4944 52.6598 18.8606L51.3868 20.1339C50.2794 19.496 49.101 19.0074 47.8683 18.6757V16.875C47.8683 16.3572 47.4486 15.9375 46.9308 15.9375H41.0688C40.5514 15.9375 40.1313 16.3572 40.1313 16.875V18.676C38.899 19.0074 37.7206 19.496 36.6132 20.1339L35.3398 18.8606C34.974 18.4948 34.3804 18.4944 34.0142 18.8602L29.8679 23.0039C29.6918 23.1797 29.5929 23.4181 29.5929 23.6667C29.5929 23.9154 29.6918 24.1542 29.8676 24.33L31.1423 25.6047C30.5044 26.7122 30.0159 27.8903 29.6841 29.1229H27.8768C27.359 29.1229 26.9393 29.5426 26.9393 30.0601L26.936 35.922C26.9357 36.1707 27.0345 36.4094 27.2103 36.5852C27.3861 36.761 27.6245 36.8599 27.8735 36.8599H29.6841C30.0159 38.0925 30.5044 39.271 31.1423 40.3784L29.8606 41.6602C29.4948 42.026 29.4944 42.6196 29.8606 42.9858L34.0039 47.1321C34.1797 47.3079 34.4181 47.4071 34.6667 47.4071H34.6671C34.9158 47.4071 35.1542 47.3082 35.33 47.1324L36.6128 45.8492C37.7206 46.4872 38.899 46.9757 40.1313 47.3075V49.125ZM36.9805 43.8776C36.6095 43.6377 36.1213 43.6897 35.8086 44.0021L34.6671 45.1436L31.8491 42.3234L32.9895 41.1826C33.3019 40.8702 33.3539 40.3821 33.114 40.0111C32.264 38.6957 31.6664 37.2539 31.3383 35.7253C31.2452 35.2936 30.8636 34.9849 30.4216 34.9849H28.8114L28.8136 30.9979H30.4216C30.8636 30.9979 31.2452 30.6896 31.3383 30.2574C31.6664 28.7292 32.264 27.2875 33.114 25.972C33.3539 25.6011 33.3019 25.1129 32.9895 24.8005L31.8564 23.6671L34.6766 20.8491L35.8086 21.9814C36.1213 22.2938 36.6091 22.3455 36.9805 22.106C38.2955 21.256 39.7373 20.6583 41.2659 20.3302C41.6976 20.2372 42.0063 19.8552 42.0063 19.4136V17.8125H45.9933V19.4132C45.9933 19.8552 46.3016 20.2372 46.7338 20.3298C48.262 20.6583 49.7041 21.2556 51.0192 22.1056C51.3901 22.3455 51.8783 22.2938 52.1907 21.9811L53.323 20.8491L56.1432 23.6671L55.0101 24.8002C54.6974 25.1129 54.6458 25.6011 54.8856 25.972C55.7356 27.2875 56.3329 28.7292 56.6614 30.2574C56.754 30.6896 57.136 30.9979 57.578 30.9979H59.189V34.9849H57.578C57.136 34.9849 56.7544 35.2936 56.6614 35.7253C56.3333 37.2535 55.7356 38.6957 54.8856 40.0107C54.6458 40.3821 54.6978 40.8702 55.0101 41.1826L56.1505 42.323L53.3325 45.1432L52.191 44.0021C51.8783 43.6893 51.3901 43.6377 51.0192 43.8776C49.7037 44.7275 48.262 45.3248 46.7338 45.6533C46.3016 45.7463 45.9933 46.1279 45.9933 46.5699V48.1875H42.0063V46.5699C42.0063 46.1283 41.6976 45.7463 41.2659 45.6533C39.7377 45.3252 38.2959 44.7275 36.9805 43.8776Z" fill="black"/>
<path d="M51.7463 33C51.7463 28.7285 48.2714 25.2535 43.9999 25.2535C39.7284 25.2535 36.2534 28.7285 36.2534 33C36.2534 37.2715 39.7284 40.7465 43.9999 40.7465C48.2714 40.7465 51.7463 37.2715 51.7463 33ZM38.1284 33C38.1284 29.7623 40.7622 27.1285 43.9999 27.1285C47.2375 27.1285 49.8713 29.7627 49.8713 33C49.8713 36.2373 47.2375 38.8715 43.9999 38.8715C40.7622 38.8715 38.1284 36.2377 38.1284 33Z" fill="black"/>
<path d="M52.6323 12.5457C52.8792 12.5457 53.1208 12.4453 53.2952 12.271C53.4695 12.0956 53.5698 11.8539 53.5698 11.6071C53.5698 11.3617 53.4698 11.1196 53.2952 10.9442C53.1208 10.7699 52.8792 10.6696 52.6323 10.6696C52.3848 10.6696 52.1442 10.7699 51.9698 10.9442C51.7952 11.1196 51.6948 11.3606 51.6948 11.6071C51.6948 11.8546 51.7952 12.0956 51.9698 12.271C52.1442 12.4453 52.3848 12.5457 52.6323 12.5457Z" fill="black"/>
<path d="M35.4087 53.4712C35.1622 53.4712 34.9202 53.5715 34.7458 53.7458C34.5715 53.9202 34.4712 54.1622 34.4712 54.4087C34.4712 54.6562 34.5715 54.8972 34.7458 55.0715C34.9202 55.2458 35.1622 55.3462 35.4087 55.3462C35.6552 55.3462 35.8972 55.2458 36.0715 55.0715C36.2458 54.8972 36.3462 54.6552 36.3462 54.4087C36.3462 54.1622 36.2458 53.9202 36.0715 53.7458C35.8972 53.5715 35.6552 53.4712 35.4087 53.4712Z" fill="black"/>
<defs>
<filter id="filter0_d" x="0" y="0" width="55" height="55" filterUnits="userSpaceOnUse" color-interpolation-filters="sRGB">
<feFlood flood-opacity="0" result="BackgroundImageFix"/>
<feColorMatrix in="SourceAlpha" type="matrix" values="0 0 0 0 0 0 0 0 0 0 0 0 0 0 0 0 0 0 127 0"/>
<feOffset dy="4"/>
<feGaussianBlur stdDeviation="2"/>
<feColorMatrix type="matrix" values="0 0 0 0 0 0 0 0 0 0 0 0 0 0 0 0 0 0 0.25 0"/>
<feBlend mode="normal" in2="BackgroundImageFix" result="effect1_dropShadow"/>
<feBlend mode="normal" in="SourceGraphic" in2="effect1_dropShadow" result="shape"/>
</filter>
<filter id="filter1_d" x="47" y="28" width="41" height="41" filterUnits="userSpaceOnUse" color-interpolation-filters="sRGB">
<feFlood flood-opacity="0" result="BackgroundImageFix"/>
<feColorMatrix in="SourceAlpha" type="matrix" values="0 0 0 0 0 0 0 0 0 0 0 0 0 0 0 0 0 0 127 0"/>
<feOffset dy="4"/>
<feGaussianBlur stdDeviation="2"/>
<feColorMatrix type="matrix" values="0 0 0 0 0 0 0 0 0 0 0 0 0 0 0 0 0 0 0.25 0"/>
<feBlend mode="normal" in2="BackgroundImageFix" result="effect1_dropShadow"/>
<feBlend mode="normal" in="SourceGraphic" in2="effect1_dropShadow" result="shape"/>
</filter>
</defs>
</svg>
