<svg width="96" height="75" viewBox="0 0 96 75" fill="none" xmlns="http://www.w3.org/2000/svg">
<g filter="url(#filter0_dd)">
<circle cx="29.8115" cy="25.8115" r="25.8115" fill="white"/>
<circle cx="73.746" cy="48.8771" r="18.123" fill="white"/>
<path d="M71.7704 16.1284H66.7125C66.1537 16.1284 65.7009 16.5813 65.7009 17.14V17.6458H62.6661C62.2857 17.6458 61.9547 17.856 61.7819 18.1664C52.6144 18.5257 45.2667 26.0946 45.2667 35.3487V36.3603H44.7609C44.2022 36.3603 43.7493 36.8132 43.7493 37.3719V41.4183C43.7493 41.977 44.2022 42.4299 44.7609 42.4299H45.2667V46.1727C45.2667 47.1176 44.8984 48.0058 44.2298 48.6764C43.5601 49.3441 42.6709 49.7133 41.7261 49.7133C40.7813 49.7133 39.8921 49.3441 39.2224 48.6764C38.5537 48.0058 38.1855 47.1176 38.1855 46.1727V42.4299H38.6913C39.25 42.4299 39.7029 41.977 39.7029 41.4183V37.3719C39.7029 36.8132 39.25 36.3603 38.6913 36.3603H38.1855V23.0731C38.4876 22.8981 38.6913 22.5722 38.6913 22.198V19.1632H39.1971C39.7558 19.1632 40.2087 18.7103 40.2087 18.1516V13.0936C40.2087 12.5349 39.7558 12.082 39.1971 12.082H23.0116C22.4529 12.082 22 12.5349 22 13.0936V18.1516C22 18.7103 22.4529 19.1632 23.0116 19.1632H23.5174V22.198C23.5174 22.5722 23.7211 22.8982 24.0232 23.0731V36.3603H23.5174C22.9587 36.3603 22.5058 36.8132 22.5058 37.3719V41.4183C22.5058 41.977 22.9587 42.4299 23.5174 42.4299H24.0232V46.1727C24.0232 48.5631 24.4916 50.8807 25.4141 53.0637C25.8582 54.1128 26.4075 55.1243 27.0468 56.0702C27.6801 57.0079 28.4074 57.889 29.2086 58.6902C30.0098 59.4914 30.8909 60.2187 31.8286 60.852C32.7745 61.4913 33.7861 62.0406 34.8351 62.4847C37.0181 63.4073 39.3352 63.8756 41.7256 63.8756L41.7261 63.8706V63.8746V63.8756C43.0412 63.8756 44.2869 63.7381 45.5292 63.466C46.737 63.2009 47.9209 62.8074 49.0478 62.2945C50.1535 61.7918 51.2127 61.1706 52.195 60.4504C53.1691 59.7342 54.0736 58.9168 54.8819 58.0185C55.2551 57.6038 55.2218 56.9634 54.8071 56.5901C54.621 56.4222 54.3812 56.3302 54.1303 56.3302C53.8441 56.3302 53.57 56.4516 53.3787 56.664C50.4066 59.9608 46.1599 61.8525 41.7261 61.8525C37.5391 61.8525 33.602 60.2208 30.639 57.2598C27.6781 54.2969 26.0464 50.3597 26.0464 46.1727V42.4299H36.1623V46.1727C36.1623 46.9244 36.31 47.6527 36.5993 48.3386C36.8795 49.0012 37.2811 49.596 37.792 50.1068C38.3028 50.6177 38.8977 51.0183 39.5603 51.2995C40.2461 51.5888 40.9745 51.7365 41.7261 51.7365C42.4777 51.7365 43.206 51.5888 43.8919 51.2995C44.5545 51.0183 45.1493 50.6177 45.6602 50.1068C46.171 49.596 46.5726 49.0012 46.8528 48.3386C47.1422 47.6527 47.2898 46.9244 47.2898 46.1727V42.4299H57.4058V46.1727C57.4058 47.157 57.3137 48.1423 57.1327 49.1023C57.0821 49.3684 57.1387 49.6375 57.2915 49.86C57.4432 50.0836 57.6739 50.2343 57.9389 50.2839C58.0016 50.296 58.0653 50.3021 58.1281 50.3021C58.6126 50.3021 59.0304 49.9551 59.1204 49.4776C59.3248 48.3952 59.429 47.2835 59.429 46.1727V42.4299H59.9348C60.4935 42.4299 60.9464 41.977 60.9464 41.4183V37.3719C60.9464 36.8132 60.4935 36.3603 59.9348 36.3603H59.429V35.551C59.429 34.0446 60.4631 32.7754 61.8587 32.4159C62.0433 32.6608 62.3358 32.8197 62.6661 32.8197H65.7009V33.3255C65.7009 33.8842 66.1537 34.3371 66.7125 34.3371H71.7704C72.3291 34.3371 72.782 33.8842 72.782 33.3255V17.14C72.782 16.5813 72.3291 16.1284 71.7704 16.1284ZM37.6797 40.4067H24.529V38.3835H37.6797V40.4067ZM36.1623 23.2096V36.3603H26.0464V23.2096H36.1623ZM29.587 21.1864V19.1632H32.6217V21.1864H29.587ZM34.6449 21.1864V19.1632H36.6681V21.1864H34.6449ZM27.5638 21.1864H25.5406V19.1632H27.5638V21.1864ZM24.0232 17.14V14.1052H38.1855V17.14H24.0232ZM58.9232 40.4067H45.7725V38.3835H58.9232V40.4067ZM61.6545 30.3883C59.2363 30.8613 57.4058 32.9964 57.4058 35.551V36.3603H47.2898V35.3487C47.2898 27.2535 53.6626 20.6185 61.6545 20.1961V30.3883ZM65.7009 30.7965H63.6777V28.7733H65.7009V30.7965ZM65.7009 26.7501H63.6777V23.7154H65.7009V26.7501ZM65.7009 21.6922H63.6777V19.669H65.7009V21.6922ZM70.7588 32.3139H67.724V18.1516H70.7588V32.3139Z" fill="black"/>
<path d="M32.1628 52.7209C31.9746 52.4417 31.661 52.2758 31.3242 52.2758C31.1218 52.2758 30.9266 52.3354 30.7587 52.4487C30.5351 52.6005 30.3834 52.8301 30.3318 53.0951C30.2802 53.3602 30.3358 53.6293 30.4866 53.8538C32.3145 56.5588 35.0488 58.5153 38.1868 59.362C38.2738 59.3852 38.3628 59.3974 38.4508 59.3974C38.9071 59.3974 39.3087 59.0899 39.427 58.6488C39.5727 58.1106 39.253 57.5543 38.7138 57.4086C36.0453 56.6893 33.7186 55.0243 32.1628 52.7209Z" fill="black"/>
<path d="M51.1118 28.8553C50.8376 29.3421 51.01 29.9589 51.4969 30.2331C51.6538 30.3215 51.8243 30.3634 51.9923 30.3634C52.3457 30.3634 52.6889 30.1779 52.8747 29.848C52.9775 29.6655 53.0869 29.4834 53.2 29.3065C54.2542 27.6586 55.7254 26.3079 57.4545 25.4C57.9491 25.1403 58.1396 24.5287 57.88 24.0341C57.6202 23.5394 57.0085 23.3491 56.5141 23.6086C54.4743 24.6796 52.739 26.2729 51.4958 28.2162C51.3623 28.4249 51.2331 28.6399 51.1118 28.8553Z" fill="black"/>
<path d="M56.682 54.6024C57.2407 54.6024 57.6936 54.1495 57.6936 53.5908C57.6936 53.0321 57.2407 52.5792 56.682 52.5792C56.1233 52.5792 55.6704 53.0321 55.6704 53.5908C55.6704 54.1495 56.1233 54.6024 56.682 54.6024Z" fill="black"/>
</g>
<defs>
<filter id="filter0_dd" x="0" y="0" width="95.8689" height="75.0001" filterUnits="userSpaceOnUse" color-interpolation-filters="sRGB">
<feFlood flood-opacity="0" result="BackgroundImageFix"/>
<feColorMatrix in="SourceAlpha" type="matrix" values="0 0 0 0 0 0 0 0 0 0 0 0 0 0 0 0 0 0 127 0"/>
<feOffset dy="4"/>
<feGaussianBlur stdDeviation="2"/>
<feColorMatrix type="matrix" values="0 0 0 0 0 0 0 0 0 0 0 0 0 0 0 0 0 0 0.25 0"/>
<feBlend mode="normal" in2="BackgroundImageFix" result="effect1_dropShadow"/>
<feColorMatrix in="SourceAlpha" type="matrix" values="0 0 0 0 0 0 0 0 0 0 0 0 0 0 0 0 0 0 127 0"/>
<feOffset dy="4"/>
<feGaussianBlur stdDeviation="2"/>
<feColorMatrix type="matrix" values="0 0 0 0 0 0 0 0 0 0 0 0 0 0 0 0 0 0 0.25 0"/>
<feBlend mode="normal" in2="effect1_dropShadow" result="effect2_dropShadow"/>
<feBlend mode="normal" in="SourceGraphic" in2="effect2_dropShadow" result="shape"/>
</filter>
</defs>
</svg>
