<svg width="102" height="79" viewBox="0 0 102 79" fill="none" xmlns="http://www.w3.org/2000/svg">
<g filter="url(#filter0_d)">
<circle cx="31.3525" cy="27.3525" r="27.3525" fill="white"/>
</g>
<g filter="url(#filter1_d)">
<circle cx="77.91" cy="51.7951" r="19.2049" fill="white"/>
</g>
<path d="M78.2041 22.0619H77.5434C77.1528 20.6903 76.6072 19.3742 75.9137 18.13L76.3833 17.6603C76.9206 17.1232 77.2163 16.4069 77.2163 15.6432C77.2163 14.8795 76.9206 14.1633 76.3829 13.6256L73.2539 10.5003C72.7165 9.95962 71.9993 9.662 71.2343 9.662C70.4693 9.662 69.752 9.95962 69.2173 10.4976L68.7482 10.9667C67.5031 10.271 66.1866 9.72437 64.8158 9.33394V8.67338C64.8159 7.09995 63.5359 5.81982 61.9623 5.81982H57.5384C55.965 5.81982 54.6849 7.09995 54.6849 8.67338V9.33394C53.3143 9.72425 51.997 10.271 50.7494 10.9672L50.2824 10.5003C49.7448 9.95962 49.0276 9.662 48.2627 9.66212C47.4977 9.66212 46.7805 9.95988 46.2459 10.4977L43.1175 13.6262C42.5801 14.1633 42.2844 14.8796 42.2844 15.6433C42.2844 16.407 42.5801 17.1232 43.1173 17.6603L43.5868 18.1299C42.8904 19.3779 42.3445 20.6942 41.9561 22.0619H41.293C39.7196 22.0619 38.4395 23.342 38.4395 24.9155V29.3432C38.4395 30.9167 39.7196 32.1968 41.293 32.1968H41.9561C42.3445 33.5644 42.8904 34.8807 43.5868 36.1288L43.1173 36.5984C42.58 37.1355 42.2843 37.8518 42.2843 38.6155C42.2843 39.3791 42.58 40.0954 43.1172 40.6325L46.2432 43.7584C46.7805 44.2991 47.4976 44.5967 48.2626 44.5967H48.2627C49.0276 44.5967 49.745 44.2991 50.2798 43.7611L50.7492 43.2915C51.9982 43.9883 53.3155 44.5343 54.6847 44.9226V45.5855C54.6847 47.1589 55.9649 48.439 57.5383 48.439H61.9622C63.5357 48.439 64.8158 47.1589 64.8158 45.5855V44.9226C66.1854 44.5342 67.5017 43.9885 68.7482 43.292L69.2146 43.7584C69.752 44.2991 70.4692 44.5967 71.2341 44.5967C71.9992 44.5967 72.7165 44.299 73.2507 43.7616L76.3833 40.6325C76.9205 40.0953 77.2162 39.3789 77.2162 38.6154C77.2162 37.8517 76.9205 37.1355 76.3833 36.5984L75.9136 36.1287C76.6071 34.8845 77.1526 33.5684 77.5432 32.1968H78.2039C79.7774 32.1968 81.0575 30.9167 81.0575 29.3432V24.9155C81.0576 23.342 79.7776 22.0619 78.2041 22.0619ZM62.2699 45.5853C62.2699 45.7521 62.1291 45.8929 61.9623 45.8929H57.5384C57.3717 45.8929 57.2309 45.7521 57.2309 45.5853V43.9326V35.9072C57.2309 35.3748 56.8996 34.8987 56.4006 34.7136C52.9798 33.445 50.6815 30.1527 50.6815 26.5214C50.6815 23.6435 52.1145 20.9458 54.5141 19.3055C54.6218 19.2319 54.7171 19.1718 54.8003 19.1226C54.7957 19.288 54.784 19.4454 54.7778 19.5275C54.7682 19.6567 54.7606 19.7587 54.7606 19.8599V25.8681C54.7606 28.6258 56.9154 30.9289 59.666 31.1113C59.7221 31.115 59.7784 31.115 59.8345 31.1113C62.5832 30.929 64.7363 28.6259 64.7363 25.8681V19.8599C64.7363 19.7592 64.7288 19.6579 64.7194 19.5294C64.7133 19.4469 64.7016 19.2887 64.6971 19.1224C64.7801 19.1716 64.8748 19.2315 64.9822 19.305C67.3824 20.9456 68.8154 23.6434 68.8154 26.5212C68.8154 30.1522 66.5184 33.4446 63.0997 34.7136C62.6008 34.8989 62.2697 35.3748 62.2697 35.9071V43.9325V45.5853H62.2699ZM78.5116 29.3432C78.5116 29.5071 78.3679 29.6508 78.2041 29.6508H76.555C75.9603 29.6508 75.4447 30.0626 75.3135 30.6427C74.9103 32.424 74.2121 34.1085 73.2381 35.6492C72.9201 36.1523 72.9932 36.8086 73.414 37.2295L74.5833 38.3987C74.6591 38.4746 74.6705 38.567 74.6705 38.6154C74.6705 38.6636 74.6591 38.7562 74.5836 38.8315L71.4484 41.9634C71.3767 42.0354 71.2923 42.0506 71.2343 42.0506C71.1763 42.0506 71.0921 42.0354 71.0177 41.9606L69.8485 40.7913C69.427 40.37 68.77 40.2974 68.2669 40.6162C67.1803 41.3047 66.0236 41.8511 64.8159 42.2549V36.7539C68.7653 34.9159 71.3617 30.9107 71.3617 26.5211C71.3617 22.8018 69.5139 19.3183 66.4193 17.203C65.9452 16.879 64.5035 15.8933 63.2426 16.6191C62.0045 17.332 62.1278 19.003 62.1804 19.7167C62.185 19.7787 62.1895 19.8307 62.1905 19.8599V25.8681C62.1905 27.2615 61.1255 28.4297 59.7504 28.564C58.3734 28.4296 57.3067 27.2614 57.3067 25.8681L57.3066 19.869C57.3077 19.8307 57.3123 19.7787 57.3169 19.7164C57.37 19.0032 57.4944 17.333 56.2573 16.6197C54.9969 15.8927 53.553 16.8788 53.0781 17.203C49.9832 19.3185 48.1355 22.8019 48.1355 26.5212C48.1355 30.9114 50.7333 34.9169 54.6849 36.7544V42.255C53.4769 41.8512 52.3189 41.3046 51.229 40.6157C51.0195 40.4833 50.7837 40.4187 50.5491 40.4187C50.2203 40.4187 49.8942 40.5459 49.6486 40.7916L48.4769 41.9634C48.4053 42.0356 48.3209 42.0507 48.2628 42.0507C48.2048 42.0507 48.1206 42.0356 48.0463 41.9608L44.9178 38.8322C44.8418 38.7563 44.8304 38.6638 44.8304 38.6155C44.8304 38.5671 44.8418 38.4747 44.9178 38.3987L46.0869 37.2295C46.5077 36.8086 46.5808 36.1523 46.2628 35.6492C45.2839 34.1003 44.5858 32.4166 44.1879 30.6449C44.0576 30.0637 43.5415 29.6507 42.9459 29.6507H41.2933C41.1294 29.6507 40.9857 29.5069 40.9857 29.3431V24.9153C40.9857 24.7486 41.1265 24.6078 41.2933 24.6078H42.9459C43.5415 24.6078 44.0575 24.1947 44.1879 23.6136C44.5858 21.8418 45.2837 20.158 46.2628 18.6093C46.5808 18.1062 46.5077 17.4498 46.0869 17.029L44.9176 15.8597C44.8418 15.7839 44.8304 15.6914 44.8304 15.6431C44.8304 15.5947 44.8418 15.5023 44.9178 15.4263L48.049 12.2949C48.1206 12.2229 48.2049 12.2077 48.2629 12.2077C48.321 12.2077 48.4053 12.2229 48.4796 12.2976L49.6487 13.4669C50.0698 13.8879 50.7262 13.9608 51.2292 13.6428C52.776 12.6649 54.4616 11.9654 56.2386 11.564C56.819 11.4329 57.2311 10.9172 57.2311 10.3223V8.67338C57.2311 8.50662 57.3719 8.36583 57.5387 8.36583H61.9626C62.1294 8.36583 62.2702 8.50662 62.2702 8.67338V10.3226C62.2702 10.9176 62.6822 11.4331 63.2626 11.5642C65.0412 11.966 66.7249 12.6651 68.2671 13.6424C68.7704 13.9612 69.4272 13.8886 69.8487 13.4673L71.0205 12.2953C71.0922 12.2233 71.1766 12.2081 71.2345 12.2081C71.2926 12.2081 71.3768 12.2233 71.4517 12.2985L74.5835 15.4267C74.6594 15.5025 74.6707 15.5949 74.6707 15.6433C74.6707 15.6917 74.6594 15.7841 74.5834 15.8601L73.4143 17.0294C72.9934 17.4502 72.9203 18.1066 73.2383 18.6097C74.2122 20.1504 74.9106 21.8347 75.3137 23.6161C75.445 24.1962 75.9605 24.608 76.5553 24.608H78.2043C78.3711 24.608 78.5119 24.7488 78.5119 24.9156V29.3432H78.5116Z" fill="black"/>
<path d="M73.0652 49.541L62.9588 54.7311C62.102 53.8439 60.9016 53.2904 59.5737 53.2904H52.6491C52.2613 53.2904 52.1666 53.2595 52.1603 53.2574C52.1041 53.2278 51.9267 53.0611 51.7842 52.9272L51.7211 52.8678C46.1189 47.5942 41.3865 47.9283 36.0049 50.0522C35.1341 50.3959 35.1173 50.3967 34.2429 50.434L32.6771 50.4351C32.2311 49.0894 30.9616 48.1156 29.4683 48.1156H24.3768C22.5147 48.1156 21 49.6321 21 51.4961V64.8586C21 66.7205 22.5147 68.2354 24.3768 68.2354H29.4683C30.9615 68.2354 32.2308 67.2627 32.677 65.9186H35.5412C35.7942 65.9186 35.7942 65.9186 36.0884 66.0015C36.1953 66.0317 36.3254 66.0684 36.4934 66.1135L49.6682 69.6382C50.249 69.7951 50.7816 69.9495 51.2968 70.0987C52.9848 70.5878 54.4037 70.9989 55.8825 70.9989C57.554 70.9989 59.3017 70.4737 61.6003 68.9418C61.6114 68.9344 61.6225 68.9268 61.6334 68.919L64.1486 67.1255C64.7211 66.7172 64.8543 65.9223 64.446 65.3499C64.0378 64.7773 63.2426 64.6442 62.6705 65.0525L60.172 66.8341C56.8363 69.0528 55.4198 68.6426 52.0053 67.6532C51.4793 67.5009 50.9355 67.3433 50.3294 67.1796L37.1536 63.6547C36.9993 63.6132 36.8783 63.5791 36.779 63.5511C36.2983 63.4157 36.1185 63.3729 35.5414 63.3729H32.8487V52.9822H34.2244C34.2428 52.9822 34.2609 52.9818 34.2792 52.981L34.3517 52.978C35.4189 52.9324 35.7174 52.9032 36.9398 52.4206C41.6663 50.5554 45.3147 50.3338 49.9777 54.7235L50.0407 54.7827C50.8376 55.5316 51.2965 55.8366 52.6492 55.8366H59.5738C60.3865 55.8366 61.0952 56.2878 61.4646 56.9524C61.4686 56.9598 61.4732 56.9668 61.4772 56.9742C61.6422 57.2793 61.7362 57.6284 61.7362 57.9991C61.7362 59.1894 60.7663 60.1578 59.574 60.1578H48.3516C47.6486 60.1578 47.0786 60.7277 47.0786 61.4308C47.0786 62.1339 47.6486 62.7038 48.3516 62.7038H59.574C62.1701 62.7038 64.2822 60.5933 64.2822 57.9991C64.2822 57.6464 64.2419 57.3032 64.1681 56.9726L74.2284 51.8062C75.1806 51.3173 76.4826 51.3698 77.129 52.4187C77.7009 53.3433 77.3863 54.5723 76.3978 55.277L71.9847 58.42C71.412 58.8279 71.2783 59.6228 71.6862 60.1955C71.9346 60.5442 72.3264 60.7302 72.7242 60.7302C72.9797 60.7302 73.2376 60.6534 73.4615 60.494L77.8751 57.3506C79.9713 55.8562 80.5813 53.1602 79.2953 51.0813C78.0307 49.029 75.3526 48.3668 73.0652 49.541ZM30.3026 64.8586C30.3026 65.309 29.9206 65.6894 29.4683 65.6894H24.3768C23.9264 65.6894 23.546 65.3089 23.546 64.8586V51.4962C23.546 51.0361 23.9187 50.6617 24.3768 50.6617H29.4683C29.9206 50.6617 30.3026 51.0438 30.3026 51.4962V64.8586Z" fill="black"/>
<defs>
<filter id="filter0_d" x="0" y="0" width="62.7049" height="62.7049" filterUnits="userSpaceOnUse" color-interpolation-filters="sRGB">
<feFlood flood-opacity="0" result="BackgroundImageFix"/>
<feColorMatrix in="SourceAlpha" type="matrix" values="0 0 0 0 0 0 0 0 0 0 0 0 0 0 0 0 0 0 127 0"/>
<feOffset dy="4"/>
<feGaussianBlur stdDeviation="2"/>
<feColorMatrix type="matrix" values="0 0 0 0 0 0 0 0 0 0 0 0 0 0 0 0 0 0 0.25 0"/>
<feBlend mode="normal" in2="BackgroundImageFix" result="effect1_dropShadow"/>
<feBlend mode="normal" in="SourceGraphic" in2="effect1_dropShadow" result="shape"/>
</filter>
<filter id="filter1_d" x="54.7051" y="32.5902" width="46.4098" height="46.4098" filterUnits="userSpaceOnUse" color-interpolation-filters="sRGB">
<feFlood flood-opacity="0" result="BackgroundImageFix"/>
<feColorMatrix in="SourceAlpha" type="matrix" values="0 0 0 0 0 0 0 0 0 0 0 0 0 0 0 0 0 0 127 0"/>
<feOffset dy="4"/>
<feGaussianBlur stdDeviation="2"/>
<feColorMatrix type="matrix" values="0 0 0 0 0 0 0 0 0 0 0 0 0 0 0 0 0 0 0.25 0"/>
<feBlend mode="normal" in2="BackgroundImageFix" result="effect1_dropShadow"/>
<feBlend mode="normal" in="SourceGraphic" in2="effect1_dropShadow" result="shape"/>
</filter>
</defs>
</svg>
